<?xml version="1.0" encoding="UTF-8"?>
<!DOCTYPE svg PUBLIC "-//W3C//DTD SVG 1.1//EN" "http://www.w3.org/Graphics/SVG/1.1/DTD/svg11.dtd">
<svg xmlns="http://www.w3.org/2000/svg" version="1.1" width="2154px" height="1694px" style="shape-rendering:geometricPrecision; text-rendering:geometricPrecision; image-rendering:optimizeQuality; fill-rule:evenodd; clip-rule:evenodd" xmlns:xlink="http://www.w3.org/1999/xlink">
<g><path style="opacity:0.997" fill="#f07422" d="M 737.5,-0.5 C 742.167,-0.5 746.833,-0.5 751.5,-0.5C 762.398,4.56299 770.565,12.563 776,23.5C 829.667,118.167 883.333,212.833 937,307.5C 1071.83,541.161 1207.16,774.494 1343,1007.5C 1373,1060.17 1403,1112.83 1433,1165.5C 1454.19,1203.2 1469.19,1243.2 1478,1285.5C 1501.94,1432.34 1460.77,1557.17 1354.5,1660C 1343.52,1669.16 1331.52,1676.83 1318.5,1683C 1301.83,1688.67 1288.67,1684.17 1279,1669.5C 1154.83,1453.83 1031.16,1237.83 908,1021.5C 814.171,860.504 719.838,699.838 625,539.5C 562.777,431.501 548.777,317.501 583,197.5C 602.316,140.83 632.316,90.8296 673,47.5C 681.5,39 690,30.5 698.5,22C 710.352,12.4104 723.352,4.91042 737.5,-0.5 Z"/></g>
<g><path style="opacity:0.997" fill="#f07422" d="M 1409.5,-0.5 C 1411.83,-0.5 1414.17,-0.5 1416.5,-0.5C 1427.9,3.05806 1436.07,10.3914 1441,21.5C 1473.83,81.8223 1507.16,141.822 1541,201.5C 1724,512.206 1905,824.206 2084,1137.5C 2101.84,1170.51 2117.51,1204.51 2131,1239.5C 2142.93,1272.33 2150.43,1306 2153.5,1340.5C 2153.5,1358.17 2153.5,1375.83 2153.5,1393.5C 2141.25,1497.16 2097.25,1584.66 2021.5,1656C 2004.31,1669.76 1986.31,1682.26 1967.5,1693.5C 1966.5,1693.5 1965.5,1693.5 1964.5,1693.5C 1951.63,1674.45 1938.13,1655.78 1924,1637.5C 1918,1628.17 1912,1618.83 1906,1609.5C 1889.74,1577.99 1873.74,1546.32 1858,1514.5C 1775.66,1373.15 1694.32,1231.15 1614,1088.5C 1520.9,931.31 1429.56,772.977 1340,613.5C 1323,584.833 1306,556.167 1289,527.5C 1222.63,407.958 1215.63,284.958 1268,158.5C 1283.61,124.249 1303.94,93.2494 1329,65.5C 1350.72,42.4375 1374.22,21.6042 1399.5,3C 1402.85,1.51368 1406.18,0.347016 1409.5,-0.5 Z"/></g>
<g><path style="opacity:0.998" fill="#e64223" d="M -0.5,1321.5 C -0.5,1304.17 -0.5,1286.83 -0.5,1269.5C 9.01126,1156.97 56.6779,1064.47 142.5,992C 201.907,945.154 269.574,919.154 345.5,914C 376.167,913.333 406.833,913.333 437.5,914C 535.364,922.848 616.864,963.682 682,1036.5C 774.415,1146.54 802.415,1271.54 766,1411.5C 732.505,1523.34 663.005,1604.18 557.5,1654C 477.071,1688.97 393.737,1697.97 307.5,1681C 169.349,1651.5 74.8487,1571 24,1439.5C 10.4937,1401.13 2.32701,1361.8 -0.5,1321.5 Z"/></g>
</svg>
